<?xml version="1.0" encoding="UTF-8"?>
<svg version="1.1" xmlns="http://www.w3.org/2000/svg" width="512" height="512">
<path d="M0 0 C0.83144531 -0.03738281 1.66289062 -0.07476562 2.51953125 -0.11328125 C9.72311142 1.03633843 15.01109114 7.85489934 19.90594482 12.77697754 C21.20396227 14.07031502 21.20396227 14.07031502 22.5282023 15.38978052 C24.92016566 17.77515993 27.30758212 20.16492838 29.69314647 22.55669713 C32.27029076 25.13837304 34.8531912 27.71427916 37.43534851 30.29093933 C42.48876755 35.33547107 47.53677199 40.38538766 52.58284774 45.43726385 C56.68322938 49.54216356 60.78556054 53.64510541 64.88928986 57.74665833 C65.76560611 58.62251488 65.76560611 58.62251488 66.65962572 59.51606551 C67.84644759 60.70224792 69.03327394 61.88842584 70.22010472 63.07459933 C81.34469321 74.19348672 92.46314652 85.31849279 103.57950857 96.44560391 C113.12066197 105.99569731 122.66705354 115.54052822 132.21728516 125.08154297 C143.30787594 136.16143532 154.39522104 147.24455891 165.47739148 158.33287382 C166.65858119 159.51470063 167.83977508 160.69652327 169.02097321 161.87834167 C169.60214912 162.45982614 170.18332504 163.04131061 170.78211235 163.64041582 C174.88059428 167.74062563 178.98139454 171.83850797 183.08309174 175.9355011 C188.07909665 180.92590213 193.07153324 185.91984003 198.05940238 190.91837323 C200.60497158 193.46920504 203.15212549 196.01839967 205.70362663 198.56329918 C208.46684339 201.31947435 211.2222974 204.08332599 213.97698975 206.84802246 C214.78806144 207.65463271 215.59913312 208.46124295 216.43478274 209.29229593 C217.5377003 210.40303673 217.5377003 210.40303673 218.66289902 211.53621674 C219.29985506 212.17349748 219.9368111 212.81077823 220.59306884 213.46737051 C224.25895653 217.70965933 224.62425872 221.38777118 224.50390625 226.84375 C223.90283189 231.53361415 221.42350138 234.21951045 217.9909668 237.25488281 C214.83588753 239.57056757 211.55784775 241.23333639 208.01953125 242.859375 C207.3204213 243.18734573 206.62131134 243.51531647 205.90101624 243.85322571 C203.60356396 244.92928597 201.30182787 245.99583613 199 247.0625 C197.37810146 247.82020502 195.7565242 248.57859813 194.13525391 249.33764648 C190.79200325 250.9019486 187.44718505 252.46282174 184.10107422 254.02099609 C177.44063899 257.12430722 170.79485336 260.25858523 164.14852905 263.39196777 C160.63900093 265.04581782 157.12806111 266.6966649 153.6171875 268.34765625 C145.84907386 272.00108762 138.08170058 275.65609076 130.31451416 279.31149292 C126.77220651 280.97855988 123.22985085 282.64552483 119.6875 284.3125 C118.2708331 284.97916618 116.85416644 285.64583284 115.4375 286.3125 C38.93750007 322.31249997 38.93750007 322.31249997 36.81256104 323.31246948 C35.39568907 323.97923396 33.97881896 324.64600235 32.56195068 325.31277466 C29.02344013 326.97797701 25.4848977 328.64311156 21.94628906 330.30810547 C15.53375842 333.32542505 9.12147266 336.34325983 2.71035767 339.36358643 C-16.44485648 348.38769095 -35.61755107 357.37319854 -54.8125 366.3125 C-60.125376 361.87506247 -65.06987163 357.19292951 -69.95092773 352.28759766 C-70.73223557 351.50643585 -71.5135434 350.72527405 -72.31852722 349.92044067 C-74.8800958 347.35817983 -77.43811188 344.79240363 -79.99609375 342.2265625 C-81.77949007 340.44129956 -83.56310846 338.65625842 -85.34693909 336.87142944 C-89.54889203 332.66605877 -93.74861407 328.45846893 -97.94724089 324.24977815 C-102.73129277 319.45451069 -107.51821793 314.66211586 -112.30537498 309.86994863 C-122.14426179 300.02063696 -131.97957255 290.16776086 -141.8125 280.3125 C-134.3489942 263.14022809 -134.3489942 263.14022809 -130.75390625 255.6328125 C-130.407939 254.90478424 -130.06197174 254.17675598 -129.70552063 253.42666626 C-128.97391177 251.88773919 -128.24123504 250.34931934 -127.50750732 248.81140137 C-125.93107813 245.50697469 -124.36028564 242.19987781 -122.78912354 238.89294434 C-121.97928321 237.18847557 -121.16918397 235.4841298 -120.35882568 233.77990723 C-116.44682357 225.550892 -112.56358571 217.30848023 -108.6875 209.0625 C-108.02939116 207.66291711 -107.3712694 206.26334029 -106.71313477 204.86376953 C-105.40198337 202.07528817 -104.09106651 199.28669669 -102.78027344 196.49804688 C-99.79376545 190.14489613 -96.80399225 183.79328186 -93.81451416 177.44152832 C-92.14704702 173.89857963 -90.47978366 170.35553504 -88.8125 166.8125 C-88.14583431 165.39583287 -87.47916765 163.97916621 -86.8125 162.5625 C-86.4825 161.86125 -86.1525 161.16 -85.8125 160.4375 C-50.8125 86.0625 -50.8125 86.0625 -49.81262207 83.93777466 C-49.14553283 82.52019984 -48.47845928 81.10261764 -47.81140137 79.68502808 C-46.15132828 76.1571956 -44.49098835 72.62948922 -42.83007812 69.10205078 C-39.75135452 62.56274565 -36.67509646 56.02231868 -33.6081543 49.47747803 C-32.18575829 46.4425119 -30.76187439 43.40824487 -29.33789062 40.37402344 C-28.67048759 38.95086593 -28.00378412 37.52738007 -27.33789062 36.10351562 C-25.49656108 32.1664873 -23.64315637 28.2356363 -21.76855469 24.31433105 C-21.10631148 22.92769593 -20.44700221 21.5396572 -19.79003906 20.1505127 C-18.75646067 17.97246056 -17.70819801 15.80204245 -16.65625 13.6328125 C-16.34554565 12.97280243 -16.03484131 12.31279236 -15.71472168 11.63278198 C-13.65189562 7.42956012 -11.36281518 4.36625274 -7.8125 1.3125 C-4.97761195 0.36753732 -2.95691383 0.0863001 0 0 Z " fill="#000000" transform="translate(215.8125,47.6875)"/>
<path d="M0 0 C2.21353149 1.71232605 2.21353149 1.71232605 4.46728516 3.96557617 C5.31811676 4.80702682 6.16894836 5.64847748 7.04556274 6.51542664 C8.40359512 7.89030998 8.40359512 7.89030998 9.7890625 9.29296875 C10.73814291 10.24189407 11.68789124 11.19015179 12.63827515 12.13777161 C14.62659957 14.12471296 16.60778274 16.11843439 18.58398438 18.11743164 C21.10845635 20.67022968 23.64812225 23.20723131 26.19315529 25.73951244 C28.15657458 27.69595 30.11251271 29.65973135 32.06623459 31.62584877 C33.4512435 33.01752782 34.84173967 34.403739 36.23233032 35.7898407 C37.0768576 36.64705215 37.92138489 37.50426361 38.79150391 38.38745117 C39.53365143 39.13500168 40.27579895 39.88255219 41.04043579 40.65275574 C44.25709058 44.5057933 46.43024566 48.41739912 46.375 53.5 C46.38273438 54.2115625 46.39046875 54.923125 46.3984375 55.65625 C45.36046499 61.76197063 41.57194291 65.86135088 37.30688477 70.06542969 C36.45267441 70.92511604 36.45267441 70.92511604 35.58120728 71.8021698 C33.7085784 73.68286377 31.82536851 75.55253959 29.94140625 77.421875 C28.63197063 78.73079163 27.3230539 80.04022754 26.01463318 81.35015869 C23.2764122 84.08829013 20.53311306 86.82119561 17.78588867 89.55029297 C14.26562256 93.04783914 10.75657241 96.55638614 7.25102329 100.06867599 C4.55167526 102.77136531 1.84736415 105.46904253 -0.85856819 108.16513824 C-2.15447066 109.45719373 -3.44903002 110.75059778 -4.74221611 112.04537201 C-6.54909197 113.8526188 -8.36232924 115.65322824 -10.17749023 117.45214844 C-10.71008957 117.98722519 -11.2426889 118.52230194 -11.79142761 119.07359314 C-16.21680943 123.43596633 -19.15547854 125.28789186 -25.375 125.375 C-26.29023438 125.40335938 -27.20546875 125.43171875 -28.1484375 125.4609375 C-34.90622371 124.36858302 -39.67540168 118.60257167 -44.29052734 113.93652344 C-44.99366058 113.23368225 -45.69679382 112.53084106 -46.42123413 111.80670166 C-48.730911 109.49563782 -51.03343365 107.17758349 -53.3359375 104.859375 C-54.94118248 103.25039765 -56.54687126 101.64186296 -58.15298462 100.03375244 C-62.36924852 95.80986978 -66.57947037 91.58001442 -70.78845215 87.34887695 C-75.08840027 83.0284326 -79.39404933 78.71367793 -83.69921875 74.3984375 C-92.13839428 65.93784305 -100.57119618 57.47092635 -109 49 C-106.55753622 47.09431077 -104.21474317 45.49044004 -101.41357422 44.16918945 C-100.72148865 43.84005554 -100.02940308 43.51092163 -99.31634521 43.17181396 C-98.56999817 42.82249817 -97.82365112 42.47318237 -97.0546875 42.11328125 C-96.26483459 41.73923157 -95.47498169 41.36518188 -94.66119385 40.97979736 C-92.06783112 39.75300308 -89.47147806 38.53268514 -86.875 37.3125 C-85.06476837 36.45796738 -83.25471168 35.60306407 -81.44482422 34.74780273 C-76.84197049 32.57403308 -72.23660611 30.40563812 -67.63061523 28.23852539 C-63.65303995 26.36583496 -59.67815574 24.4874587 -55.703125 22.609375 C-49.43294178 19.6476062 -43.15614997 16.70023594 -36.87516785 13.76144409 C-32.96535047 11.92962891 -29.06556964 10.07830737 -25.17327881 8.20954895 C-23.33172854 7.32700674 -21.48751638 6.45033165 -19.64208984 5.57592773 C-17.40684962 4.5158078 -15.17633163 3.4456483 -12.95166016 2.36352539 C-11.97116699 1.90196045 -10.99067383 1.44039551 -9.98046875 0.96484375 C-9.13379639 0.5587085 -8.28712402 0.15257324 -7.41479492 -0.26586914 C-4.42400579 -1.17511016 -2.98548646 -0.90160661 0 0 Z " fill="#000000" transform="translate(291,387)"/>
<path d="M0 0 C5.312876 4.43743753 10.25737163 9.11957049 15.13842773 14.02490234 C15.91973557 14.80606415 16.7010434 15.58722595 17.50602722 16.39205933 C20.0675958 18.95432017 22.62561188 21.52009637 25.18359375 24.0859375 C26.96699007 25.87120044 28.75060846 27.65624158 30.53443909 29.44107056 C34.73639203 33.64644123 38.93611407 37.85403107 43.13474089 42.06272185 C47.91879277 46.85798931 52.70571793 51.65038414 57.49287498 56.44255137 C67.33176179 66.29186304 77.16707255 76.14473914 87 86 C86.05121756 87.11350358 85.1014887 88.2262008 84.15136719 89.33856201 C83.62258972 89.95828259 83.09381226 90.57800316 82.54901123 91.21650314 C78.90097446 95.41677103 74.92038017 99.30655877 71 103.25 C70.1234375 104.1471875 69.246875 105.044375 68.34375 105.96875 C67.05984375 107.26039063 67.05984375 107.26039063 65.75 108.578125 C64.98171875 109.35575195 64.2134375 110.13337891 63.421875 110.93457031 C59.35538144 114.40256785 55.37609693 116.42888446 50 116.4375 C49.195625 116.45683594 48.39125 116.47617187 47.5625 116.49609375 C41.25679946 115.27532551 36.65222474 109.94080987 32.29199219 105.55078125 C31.65059296 104.91288666 31.00919373 104.27499207 30.34835815 103.61776733 C28.24282587 101.52099326 26.14464168 99.41704121 24.046875 97.3125 C22.58079759 95.8477706 21.11442346 94.38333814 19.64776611 92.91918945 C16.58157631 89.85594263 13.51901926 86.78912149 10.45898438 83.71972656 C6.53599192 79.78531998 2.60406216 75.85998705 -1.330616 71.93727112 C-4.35735839 68.91775238 -7.37932527 65.89349051 -10.3998642 62.86776733 C-11.84808286 61.41821463 -13.29778835 59.97014582 -14.74900055 58.52359009 C-16.77406827 56.50359799 -18.79261991 54.47731164 -20.80957031 52.44921875 C-21.41010223 51.85273529 -22.01063416 51.25625183 -22.62936401 50.64169312 C-27.04788967 46.17781186 -29.28435622 43.09696572 -29.375 36.625 C-29.40335938 35.70976562 -29.43171875 34.79453125 -29.4609375 33.8515625 C-28.45093419 27.60323693 -23.49413887 23.21342251 -19.140625 18.9453125 C-18.59138367 18.39890106 -18.04214233 17.85248962 -17.47625732 17.28952026 C-15.73885208 15.56321695 -13.99458921 13.84403982 -12.25 12.125 C-11.0633399 10.94838261 -9.87713732 9.77130361 -8.69140625 8.59375 C-5.79953212 5.72380355 -2.90149084 2.86022237 0 0 Z " fill="#000000" transform="translate(53,348)"/>
<path d="M0 0 C5.13308791 2.61320839 8.1797908 5.53937241 10 11 C10.99051918 17.24403232 9.8172454 21.11345611 6.24926758 26.20800781 C1.63096542 31.94065771 -3.61357012 37.09287229 -8.83056641 42.27661133 C-10.87549877 44.31299669 -12.90099763 46.36743024 -14.92578125 48.42382812 C-16.23845181 49.73811027 -17.55221753 51.05129971 -18.8671875 52.36328125 C-19.76133865 53.27428337 -19.76133865 53.27428337 -20.67355347 54.20368958 C-25.61208062 59.06243044 -30.63457836 62.59382842 -37.625 63.4375 C-42.90985436 62.75242629 -46.340734 60.99899694 -49.8125 57 C-53.04393706 52.56831489 -53.44368768 49.41298966 -53 44 C-50.70538813 37.44138539 -46.47321116 32.89691427 -41.6015625 28.10546875 C-40.88898285 27.39143387 -40.1764032 26.67739899 -39.44223022 25.94172668 C-37.94254623 24.44369385 -36.43794694 22.95056714 -34.92871094 21.4621582 C-32.62653503 19.18901567 -30.3436829 16.89770441 -28.0625 14.60351562 C-26.59746513 13.14471677 -25.13135515 11.68699666 -23.6640625 10.23046875 C-22.98574371 9.54921432 -22.30742493 8.8679599 -21.60855103 8.1660614 C-15.05662454 1.74251912 -9.31819681 -1.3787901 0 0 Z " fill="#000000" transform="translate(430,48)"/>
<path d="M0 0 C0.81457169 -0.00524185 1.62914337 -0.0104837 2.46839905 -0.0158844 C4.18196479 -0.02227451 5.89557457 -0.02100685 7.60913086 -0.01245117 C10.21223026 -0.00394034 12.81313235 -0.03274362 15.41601562 -0.06445312 C17.0898431 -0.06606557 18.76367441 -0.06548678 20.4375 -0.0625 C21.20545395 -0.07373398 21.9734079 -0.08496796 22.76463318 -0.09654236 C29.62777383 -0.00925438 34.95957653 2.04987454 39.78515625 6.99609375 C41.91624421 11.879837 42.05164275 16.18550761 41.28515625 21.43359375 C38.94892836 26.3756143 36.04994959 28.84449434 31.28515625 31.43359375 C28.10308371 31.99930372 24.98354093 31.99501161 21.7578125 31.96484375 C20.39709877 31.97058411 20.39709877 31.97058411 19.00889587 31.97644043 C17.09682094 31.97915354 15.18470851 31.97183454 13.27270508 31.95507812 C10.35998979 31.93368434 7.44974784 31.95488692 4.53710938 31.98046875 C2.67317168 31.97782488 0.80923552 31.97269868 -1.0546875 31.96484375 C-1.91843491 31.97294067 -2.78218231 31.9810376 -3.67210388 31.98937988 C-9.50133563 31.89985396 -12.90851419 30.76837412 -17.71484375 27.43359375 C-21.12882299 23.60123471 -22.02802655 19.35263564 -21.77734375 14.30859375 C-20.99136042 9.24250319 -19.53926988 6.84232138 -15.71484375 3.43359375 C-10.32321965 0.62504507 -6.02802667 -0.02298261 0 0 Z " fill="#000000" transform="translate(446.71484375,175.56640625)"/>
<path d="M0 0 C4.85473944 4.49063398 6.36922525 8.56136004 6.67700195 15.03613281 C6.70381784 16.52919579 6.72383575 18.0223911 6.73828125 19.515625 C6.746353 20.31224548 6.75442474 21.10886597 6.76274109 21.92962646 C6.77654888 23.61403244 6.78728576 25.29846602 6.79516602 26.98291016 C6.80667445 28.69555938 6.8271084 30.40817306 6.85668945 32.12060547 C6.8996026 34.60669101 6.91556745 37.09171393 6.92578125 39.578125 C6.94328934 40.33361633 6.96079742 41.08910767 6.97883606 41.86749268 C6.95650687 47.41819905 5.60867216 51.68229625 2.5 56.3125 C-1.73419695 60.06553821 -5.89433993 61.58409206 -11.5 61.3125 C-16.72748189 59.71767502 -19.9680116 57.46778047 -23.5 53.3125 C-24.3991176 50.6151472 -24.63912939 48.98690517 -24.67700195 46.21166992 C-24.68983719 45.39039108 -24.70267242 44.56911224 -24.71589661 43.72294617 C-24.72328354 42.83855362 -24.73067047 41.95416107 -24.73828125 41.04296875 C-24.746353 40.12920975 -24.75442474 39.21545074 -24.76274109 38.27400208 C-24.77657007 36.33983247 -24.78729753 34.40563858 -24.79516602 32.47143555 C-24.81237458 29.52149957 -24.85627051 26.57268579 -24.90039062 23.62304688 C-24.9105184 21.74219573 -24.91903424 19.86133507 -24.92578125 17.98046875 C-24.94328934 17.1021489 -24.96079742 16.22382904 -24.97883606 15.31889343 C-24.956006 8.83613753 -23.20347785 5.44853431 -18.9375 0.5 C-13.98318556 -3.59269454 -5.34666519 -2.57785643 0 0 Z " fill="#000000" transform="translate(305.5,1.6875)"/>
</svg>
